<mxfile host="Electron" agent="Mozilla/5.0 (Windows NT 10.0; Win64; x64) AppleWebKit/537.36 (KHTML, like Gecko) draw.io/24.7.5 Chrome/126.0.6478.183 Electron/31.3.0 Safari/537.36" version="24.7.5">
  <diagram name="Page-1" id="RovbUQDV_0YPRc3pp8wG">
    <mxGraphModel dx="767" dy="1299" grid="1" gridSize="10" guides="1" tooltips="1" connect="1" arrows="1" fold="1" page="1" pageScale="1" pageWidth="850" pageHeight="1100" math="0" shadow="0">
      <root>
        <mxCell id="0" />
        <mxCell id="1" parent="0" />
        <mxCell id="sU7ZEoeaXOw1WCR-BWSg-9" value="" style="rounded=0;whiteSpace=wrap;html=1;fillColor=#E6E6E6;strokeColor=none;" vertex="1" parent="1">
          <mxGeometry x="340" y="535" width="170" height="130" as="geometry" />
        </mxCell>
        <mxCell id="sU7ZEoeaXOw1WCR-BWSg-11" value="" style="rounded=0;whiteSpace=wrap;html=1;strokeColor=none;fillColor=#f0a30a;fontColor=#000000;" vertex="1" parent="1">
          <mxGeometry x="350" y="570" width="150" height="40" as="geometry" />
        </mxCell>
        <mxCell id="sU7ZEoeaXOw1WCR-BWSg-1" value="" style="rounded=0;whiteSpace=wrap;html=1;fillColor=#E6E6E6;strokeColor=none;" vertex="1" parent="1">
          <mxGeometry x="340" y="240" width="320" height="210" as="geometry" />
        </mxCell>
        <mxCell id="sU7ZEoeaXOw1WCR-BWSg-2" value="&lt;font style=&quot;font-size: 14px;&quot;&gt;Ultra 96&lt;/font&gt;" style="rounded=0;whiteSpace=wrap;html=1;strokeColor=none;fillColor=#1ba1e2;fontColor=#ffffff;" vertex="1" parent="1">
          <mxGeometry x="350" y="310" width="160" height="70" as="geometry" />
        </mxCell>
        <mxCell id="sU7ZEoeaXOw1WCR-BWSg-3" value="&lt;font style=&quot;font-size: 14px;&quot;&gt;Game Engine&lt;/font&gt;" style="rounded=0;whiteSpace=wrap;html=1;strokeColor=none;fillColor=#FF99CC;fontColor=#ffffff;" vertex="1" parent="1">
          <mxGeometry x="520" y="310" width="130" height="70" as="geometry" />
        </mxCell>
        <mxCell id="sU7ZEoeaXOw1WCR-BWSg-4" value="&lt;font style=&quot;font-size: 14px;&quot;&gt;AI Accelerator&lt;/font&gt;" style="rounded=0;whiteSpace=wrap;html=1;strokeColor=none;fillColor=#60a917;fontColor=#ffffff;" vertex="1" parent="1">
          <mxGeometry x="350" y="250" width="160" height="50" as="geometry" />
        </mxCell>
        <mxCell id="sU7ZEoeaXOw1WCR-BWSg-5" value="&lt;font style=&quot;font-size: 14px;&quot;&gt;Evaluation Client&lt;/font&gt;" style="rounded=0;whiteSpace=wrap;html=1;strokeColor=none;fillColor=#CC99FF;fontColor=#ffffff;" vertex="1" parent="1">
          <mxGeometry x="520" y="250" width="130" height="50" as="geometry" />
        </mxCell>
        <mxCell id="sU7ZEoeaXOw1WCR-BWSg-6" value="&lt;font color=&quot;#ffffff&quot; style=&quot;font-size: 14px;&quot;&gt;Visualiser&lt;/font&gt;" style="rounded=0;whiteSpace=wrap;html=1;strokeColor=none;fillColor=#FF9999;fontColor=#000000;" vertex="1" parent="1">
          <mxGeometry x="520" y="390" width="130" height="50" as="geometry" />
        </mxCell>
        <mxCell id="sU7ZEoeaXOw1WCR-BWSg-7" value="&lt;font color=&quot;#ffffff&quot; style=&quot;font-size: 14px;&quot;&gt;Node Relay Client&lt;/font&gt;" style="rounded=0;whiteSpace=wrap;html=1;strokeColor=none;fillColor=#f0a30a;fontColor=#000000;" vertex="1" parent="1">
          <mxGeometry x="350" y="390" width="160" height="50" as="geometry" />
        </mxCell>
        <mxCell id="sU7ZEoeaXOw1WCR-BWSg-8" value="" style="endArrow=classicThin;dashed=1;html=1;rounded=0;endFill=1;entryX=0.009;entryY=0.16;entryDx=0;entryDy=0;entryPerimeter=0;strokeColor=#808080;startArrow=classicThin;startFill=1;exitX=0.5;exitY=0;exitDx=0;exitDy=0;" edge="1" parent="1" source="sU7ZEoeaXOw1WCR-BWSg-17">
          <mxGeometry width="50" height="50" relative="1" as="geometry">
            <mxPoint x="424.12" y="510" as="sourcePoint" />
            <mxPoint x="424" y="439.9999999999999" as="targetPoint" />
          </mxGeometry>
        </mxCell>
        <mxCell id="sU7ZEoeaXOw1WCR-BWSg-10" value="" style="sketch=0;pointerEvents=1;shadow=0;dashed=0;html=1;strokeColor=none;fillColor=#FFFFFF;labelPosition=center;verticalLabelPosition=bottom;verticalAlign=top;outlineConnect=0;align=center;shape=mxgraph.office.devices.laptop;" vertex="1" parent="1">
          <mxGeometry x="373" y="580" width="34" height="20" as="geometry" />
        </mxCell>
        <mxCell id="sU7ZEoeaXOw1WCR-BWSg-12" value="&lt;font style=&quot;font-size: 14px;&quot; color=&quot;#ffffff&quot;&gt;Laptop&lt;/font&gt;" style="text;html=1;align=center;verticalAlign=middle;whiteSpace=wrap;rounded=0;" vertex="1" parent="1">
          <mxGeometry x="407" y="575" width="70" height="30" as="geometry" />
        </mxCell>
        <mxCell id="sU7ZEoeaXOw1WCR-BWSg-13" value="&lt;font style=&quot;font-size: 14px;&quot; color=&quot;#ffffff&quot;&gt;Node Relay Server&lt;/font&gt;" style="rounded=0;whiteSpace=wrap;html=1;strokeColor=none;fillColor=#f0a30a;fontColor=#000000;" vertex="1" parent="1">
          <mxGeometry x="350" y="618" width="150" height="40" as="geometry" />
        </mxCell>
        <mxCell id="sU7ZEoeaXOw1WCR-BWSg-14" value="" style="endArrow=classicThin;dashed=1;html=1;rounded=0;endFill=1;strokeColor=#808080;startArrow=classicThin;startFill=1;exitX=1;exitY=0.5;exitDx=0;exitDy=0;entryX=0;entryY=0.5;entryDx=0;entryDy=0;edgeStyle=orthogonalEdgeStyle;" edge="1" parent="1" source="sU7ZEoeaXOw1WCR-BWSg-13" target="sU7ZEoeaXOw1WCR-BWSg-18">
          <mxGeometry width="50" height="50" relative="1" as="geometry">
            <mxPoint x="520" y="589.5" as="sourcePoint" />
            <mxPoint x="590" y="613" as="targetPoint" />
          </mxGeometry>
        </mxCell>
        <mxCell id="sU7ZEoeaXOw1WCR-BWSg-15" value="SSH Tunnelling" style="text;html=1;align=center;verticalAlign=middle;whiteSpace=wrap;rounded=0;" vertex="1" parent="1">
          <mxGeometry x="434" y="460" width="60" height="30" as="geometry" />
        </mxCell>
        <mxCell id="sU7ZEoeaXOw1WCR-BWSg-16" value="Bluetooth" style="text;html=1;align=center;verticalAlign=middle;whiteSpace=wrap;rounded=0;" vertex="1" parent="1">
          <mxGeometry x="530" y="550" width="60" height="30" as="geometry" />
        </mxCell>
        <mxCell id="sU7ZEoeaXOw1WCR-BWSg-17" value="&lt;font style=&quot;font-size: 14px;&quot;&gt;Relay Node&lt;/font&gt;" style="text;html=1;align=center;verticalAlign=middle;whiteSpace=wrap;rounded=0;" vertex="1" parent="1">
          <mxGeometry x="387" y="535" width="77" height="30" as="geometry" />
        </mxCell>
        <mxCell id="sU7ZEoeaXOw1WCR-BWSg-18" value="" style="rounded=0;whiteSpace=wrap;html=1;fillColor=#E6E6E6;strokeColor=none;" vertex="1" parent="1">
          <mxGeometry x="610" y="485" width="210" height="180" as="geometry" />
        </mxCell>
        <mxCell id="sU7ZEoeaXOw1WCR-BWSg-19" value="&lt;font style=&quot;font-size: 14px;&quot;&gt;Hardware&lt;/font&gt;" style="text;html=1;align=center;verticalAlign=middle;whiteSpace=wrap;rounded=0;" vertex="1" parent="1">
          <mxGeometry x="676.5" y="485" width="77" height="30" as="geometry" />
        </mxCell>
        <mxCell id="sU7ZEoeaXOw1WCR-BWSg-20" value="&lt;font color=&quot;#ffffff&quot; style=&quot;font-size: 14px;&quot;&gt;Beetle&lt;/font&gt;" style="rounded=0;whiteSpace=wrap;html=1;strokeColor=none;fillColor=#e3c800;fontColor=#000000;" vertex="1" parent="1">
          <mxGeometry x="620" y="520" width="90" height="35" as="geometry" />
        </mxCell>
        <mxCell id="sU7ZEoeaXOw1WCR-BWSg-21" value="&lt;font color=&quot;#ffffff&quot; style=&quot;font-size: 14px;&quot;&gt;IR Emitter&lt;/font&gt;" style="rounded=0;whiteSpace=wrap;html=1;strokeColor=none;fillColor=#e3c800;fontColor=#000000;" vertex="1" parent="1">
          <mxGeometry x="720" y="520" width="90" height="35" as="geometry" />
        </mxCell>
        <mxCell id="sU7ZEoeaXOw1WCR-BWSg-22" value="&lt;font color=&quot;#ffffff&quot; style=&quot;font-size: 14px;&quot;&gt;IMU&lt;/font&gt;" style="rounded=0;whiteSpace=wrap;html=1;strokeColor=none;fillColor=#e3c800;fontColor=#000000;" vertex="1" parent="1">
          <mxGeometry x="620" y="568" width="90" height="35" as="geometry" />
        </mxCell>
        <mxCell id="sU7ZEoeaXOw1WCR-BWSg-23" value="&lt;font color=&quot;#ffffff&quot; style=&quot;font-size: 14px;&quot;&gt;IR Detector&lt;/font&gt;" style="rounded=0;whiteSpace=wrap;html=1;strokeColor=none;fillColor=#e3c800;fontColor=#000000;" vertex="1" parent="1">
          <mxGeometry x="720" y="568" width="90" height="35" as="geometry" />
        </mxCell>
        <mxCell id="sU7ZEoeaXOw1WCR-BWSg-24" value="&lt;font color=&quot;#ffffff&quot; style=&quot;font-size: 14px;&quot;&gt;Feedback Devices&lt;/font&gt;" style="rounded=0;whiteSpace=wrap;html=1;strokeColor=none;fillColor=#e3c800;fontColor=#000000;" vertex="1" parent="1">
          <mxGeometry x="620" y="615" width="190" height="35" as="geometry" />
        </mxCell>
        <mxCell id="sU7ZEoeaXOw1WCR-BWSg-25" value="" style="verticalLabelPosition=bottom;html=1;verticalAlign=top;align=center;strokeColor=none;fillColor=#999999;shape=mxgraph.azure.mobile_services;pointerEvents=1;" vertex="1" parent="1">
          <mxGeometry x="761.5" y="370" width="58.5" height="90" as="geometry" />
        </mxCell>
        <mxCell id="sU7ZEoeaXOw1WCR-BWSg-26" value="" style="endArrow=classicThin;dashed=1;html=1;rounded=0;endFill=1;strokeColor=#808080;startArrow=classicThin;startFill=1;exitX=1;exitY=0.5;exitDx=0;exitDy=0;entryX=0;entryY=0.5;entryDx=0;entryDy=0;entryPerimeter=0;" edge="1" parent="1" source="sU7ZEoeaXOw1WCR-BWSg-6" target="sU7ZEoeaXOw1WCR-BWSg-25">
          <mxGeometry width="50" height="50" relative="1" as="geometry">
            <mxPoint x="656.5" y="414.71000000000004" as="sourcePoint" />
            <mxPoint x="746.5" y="414.71000000000004" as="targetPoint" />
          </mxGeometry>
        </mxCell>
        <mxCell id="sU7ZEoeaXOw1WCR-BWSg-27" value="MQTT" style="text;html=1;align=center;verticalAlign=middle;whiteSpace=wrap;rounded=0;" vertex="1" parent="1">
          <mxGeometry x="677.5" y="385" width="60" height="30" as="geometry" />
        </mxCell>
        <mxCell id="sU7ZEoeaXOw1WCR-BWSg-30" value="&lt;font style=&quot;font-size: 14px;&quot;&gt;Evaluation Server&lt;/font&gt;" style="rounded=0;whiteSpace=wrap;html=1;strokeColor=none;fillColor=#999999;fontColor=#ffffff;" vertex="1" parent="1">
          <mxGeometry x="725.75" y="250" width="130" height="50" as="geometry" />
        </mxCell>
        <mxCell id="sU7ZEoeaXOw1WCR-BWSg-31" value="" style="endArrow=classicThin;dashed=1;html=1;rounded=0;endFill=1;strokeColor=#808080;startArrow=classicThin;startFill=1;exitX=1;exitY=0.5;exitDx=0;exitDy=0;entryX=0;entryY=0.5;entryDx=0;entryDy=0;" edge="1" parent="1" source="sU7ZEoeaXOw1WCR-BWSg-5" target="sU7ZEoeaXOw1WCR-BWSg-30">
          <mxGeometry width="50" height="50" relative="1" as="geometry">
            <mxPoint x="670" y="320" as="sourcePoint" />
            <mxPoint x="782" y="320" as="targetPoint" />
          </mxGeometry>
        </mxCell>
        <mxCell id="sU7ZEoeaXOw1WCR-BWSg-32" value="SSH Tunnelling" style="text;html=1;align=center;verticalAlign=middle;whiteSpace=wrap;rounded=0;" vertex="1" parent="1">
          <mxGeometry x="660" y="250" width="60" height="30" as="geometry" />
        </mxCell>
        <mxCell id="sU7ZEoeaXOw1WCR-BWSg-33" value="&lt;font style=&quot;font-size: 24px;&quot;&gt;Overall Architecture Diagram&lt;/font&gt;" style="text;html=1;align=center;verticalAlign=middle;whiteSpace=wrap;rounded=0;" vertex="1" parent="1">
          <mxGeometry x="450" y="190" width="330" height="30" as="geometry" />
        </mxCell>
      </root>
    </mxGraphModel>
  </diagram>
</mxfile>
